<?xml version="1.0" encoding="utf-8"?>
<!-- Generator: Adobe Illustrator 21.0.0, SVG Export Plug-In . SVG Version: 6.00 Build 0)  -->
<svg version="1.1" id="Layer_1" xmlns="http://www.w3.org/2000/svg" xmlns:xlink="http://www.w3.org/1999/xlink" x="0px" y="0px"
	 viewBox="0 0 140 140" style="enable-background:new 0 0 140 140;" xml:space="preserve">
<style type="text/css">
	.st0{fill:#366053;}
	.st1{fill-rule:evenodd;clip-rule:evenodd;fill:#CE9A8B;}
	.st2{fill:#CE9A8B;}
	.st3{fill:#E3A48C;}
	.st4{fill:#EDC3A1;}
	.st5{fill:#F1D3B8;}
	.st6{fill:#CB988A;}
	.st7{fill:#D37355;}
	.st8{fill:#A35449;}
	.st9{fill:#505865;}
	.st10{fill:#78695D;}
	.st11{fill:#9C7A52;}
	.st12{fill-rule:evenodd;clip-rule:evenodd;fill:#9C7A52;}
	.st13{fill:#5FA88E;}
	.st14{fill:#518F7D;}
</style>
<g>
	<g>
		<path class="st0" d="M89,109.5c0,5.7-8.6,10.4-19.3,10.4c-10.7,0-19.3-4.6-19.3-10.4c0-0.9,0.2-1.8,0.6-2.6c0.7,0,1.4,0,2.1,0.1
			c0.3,0,0.2,0,0,0c0.5,3.3,9.3,8.1,16.6,8.1c7.5,0,17.1-5,17.2-8.4c0.6,0,1.1,0,1.4,0C88.8,107.5,89,108.5,89,109.5z"/>
		<g>
			<rect x="57.5" y="99.4" class="st1" width="25.3" height="35.7"/>
		</g>
		<g>
			
				<ellipse transform="matrix(0.1615 -0.9869 0.9869 0.1615 23.8045 147.0269)" class="st2" cx="98.4" cy="59.5" rx="7.9" ry="4.9"/>
		</g>
		<g>
			<ellipse transform="matrix(0.9869 -0.1615 0.1615 0.9869 -9.0575 7.5752)" class="st2" cx="42.1" cy="59.5" rx="4.9" ry="7.9"/>
		</g>
		<g>
			<path class="st3" d="M42.5,43c0,23.1-0.7,30.1,3.9,38.6c4.6,8.6,4.8,9.9,10.1,15.2c5.3,5.3,5,6.6,14.2,6.6c9.2,0,12.4-5,14.7-7.7
				c2.5-2.9,5.7-5.5,9-14.7c3.3-9.2,2.6-8.6,3.3-17.8c0.7-9.2,0.8-14.4,0.4-19.1c-0.4-4.6,0,0-0.2-7.9c-0.2-7.9-52.4-3.8-54.6-3.8
				C41.1,32.4,42.5,43,42.5,43z"/>
		</g>
		<g>
			<path class="st4" d="M42.6,60.2c0.1,5.4,1.5,16.2,3.5,21.6c2,5.5,4.6,8.2,8.6,13.1c4,4.9,4.8,6.7,9.1,7.8
				c4.3,1.2,5.9,0.9,7.6-0.2c0.8-0.5,1.5-3.9-1.9-6.7c-4-3.4-12.9-9-13.1-11.4c-0.1-1.9,14.4-0.3,14.4-0.3l-0.6-5.7h6.2l-5.6-21
				L42.6,60.2z"/>
		</g>
		<g>
			<path class="st5" d="M42.8,61c1,4.3,1.6,8.5,2.7,12.4c0.3,1,0.6,1.9,0.9,2.8c0.3,0.9,0.7,1.9,1.1,2.8c0.4,0.9,0.9,1.8,1.3,2.7
				c0.4,0.9,0.9,1.7,1.5,2.6c1.1,1.7,2.2,3.5,3.4,5.2c0.6,0.8,1.1,1.8,1.7,2.6l1.7,2.6c0.6,0.9,1.2,1.7,1.8,2.5
				c0.3,0.4,0.6,0.8,0.9,1.1c0.3,0.4,0.7,0.7,1,1.1c0.7,0.7,1.4,1.3,2.3,1.7c0.4,0.3,0.9,0.5,1.4,0.7c0.5,0.3,1,0.6,1.4,0.9
				l-0.1,0.3c-1-0.4-2-0.6-3-0.9c-1-0.3-2-0.8-2.9-1.4c-1.8-1.2-3.3-2.8-4.6-4.5c-2.7-3.3-5.2-6.8-7.5-10.4c-2.2-3.7-3.8-7.8-4.5-12
				c-0.7-4.2-0.8-8.5-0.8-12.8L42.8,61z"/>
		</g>
		<g>
			<ellipse class="st6" cx="71" cy="79.6" rx="5.4" ry="1.7"/>
		</g>
		<g>
			<ellipse class="st5" cx="71" cy="78.8" rx="5.4" ry="1.7"/>
		</g>
		<g>
			<path class="st7" d="M57.5,84.6c1.3,0.2,2.5,0.7,3.7,1.2c1.2,0.5,2.3,1.1,3.5,1.7c1.1,0.6,2.2,1.1,3.3,1.6
				c0.5,0.2,1.1,0.4,1.6,0.6c0.2,0.1,0.5,0.1,0.7,0.1c0.2,0,0.3,0,0.6,0c0.9-0.1,2.1-0.6,3.2-1c1.1-0.4,2.3-1,3.4-1.4
				c2.3-1,4.6-2,7.1-2.8c-1.8,1.8-3.8,3.5-6,4.9c-1.1,0.7-2.2,1.4-3.4,2c-1.2,0.6-2.4,1.1-4,1.3c-0.4,0.1-0.9,0.1-1.3,0
				c-0.5,0-0.8-0.2-1.2-0.3c-0.7-0.2-1.3-0.5-1.9-0.9c-1.2-0.6-2.2-1.4-3.3-2.2c-1-0.8-2-1.6-3-2.4C59.5,86.1,58.6,85.3,57.5,84.6z"
				/>
		</g>
		<g>
			<path class="st8" d="M57.5,84.6c2.5-0.2,4.9,0,7.2,0.2c2.3,0.2,4.5,0.6,6.3,0.5c2-0.1,4.3-0.3,6.5-0.4c2.3-0.2,4.5-0.2,7-0.4
				c-0.7,1.1-1.8,1.9-2.8,2.6c-1.1,0.7-2.2,1.2-3.3,1.7c-2.3,0.9-4.7,1.5-7.3,1.6c-0.6,0-1.4,0-2.1-0.1c-0.7-0.1-1.3-0.2-1.9-0.4
				c-1.2-0.3-2.4-0.7-3.5-1.2C61.5,87.6,59.4,86.3,57.5,84.6z"/>
		</g>
		<g>
			<circle class="st9" cx="55.5" cy="58.5" r="4"/>
		</g>
		<g>
			<circle class="st9" cx="86.9" cy="58.5" r="4"/>
		</g>
		<path class="st9" d="M47,56.7c3.7-2.2,2.6-2.2,5.4-2.4c2.8-0.2,6.9,0,8.9,0.6"/>
		<path class="st9" d="M95.3,56.7c-3.7-2.2-2.6-2.2-5.4-2.4c-2.8-0.2-6.9,0-8.9,0.6"/>
		<g>
			<path class="st10" d="M48.1,49.6c3.5-1.9,3.4-2.4,6.2-2.6c2.8-0.2,5.6,0.2,6.9,0.9"/>
		</g>
		<g>
			<path class="st10" d="M94.8,49.1c-3.5-1.9-3.4-2.4-6.2-2.6c-2.8-0.2-5.6,0.2-6.9,0.9"/>
		</g>
		<g>
			<polygon class="st11" points="102.9,25 97.8,64.9 93.9,24.8 			"/>
		</g>
		<g>
			<polygon class="st11" points="46.9,27.8 41.8,67.8 37.9,27.7 			"/>
		</g>
		<path class="st12" d="M107.4,23.4C100.9,49.3,67.3,39.8,48,41.2c-2.5-0.4-5-1.1-7.5-2.2c-6.5-3.2-4.7-10.4-0.9-15.9
			c1.3-1.8,2.8-3.5,4.3-4.8c1.9-1.5,4-2.8,6.1-3.9C67.3,7.9,88,8.8,103.8,18C105.4,19.5,106.7,21.3,107.4,23.4z"/>
		<path class="st13" d="M50.3,117.5c-6.5,0-14.4,2.2-21.3,6.7c-6.7,4.3-9.6,11.1-17.8,21c-2-3.2-3.4-5.7-3.4-5.7
			c11.6-12.7,14.4-21,22.1-26c7-4.5,14.8-6.7,21.3-6.7c-0.4,0.8-0.6,1.7-0.6,2.6c0,5.7,8.6,7.8,19.3,7.8c10.7,0,19.3-2,19.3-7.8
			c0-1-0.2-1.9-0.7-2.8c1.6,0,1.3,0.1,2.4,0.2c5.3,0.6,20.2,3.9,24.1,7.3c3.9,3.3,18.2,21.5,21,25.4c1.1,1.5-0.7,4.2-3.4,7.2
			c-5.1-6.7-15.3-19.3-18.4-22c-3.9-3.3-18.8-6.6-24.1-7.3c-1-0.1-0.8-0.2-2.4-0.2"/>
		<path class="st14" d="M82.6,116.6c0-1,5.6,0.9,5.1,0c1.6,0,1.3,0.1,2.4,0.2c5.3,0.6,20.2,3.9,24.1,7.3c3.2,2.7,13.3,15.4,18.4,22
			c-4.1,4.5-10.2,9.7-11.5,12.6c-2.2,5-6.1-4.4-6.1-4.4s0,6.7,0,12.5V230c0,0.1-0.3,0.3-0.9,0.4c-8.4,1.8-74.7,1.8-80.9,1.8
			c-6.6,0-6-51.4-6-56.9c0-5.5-0.5-24.8,0-29.3c0.5-4.4-2.8,7.7-3.9,12.7c-0.8,3.4-7.7-7.2-12.1-14.2c8.2-10,11.1-16.7,17.8-21
			c7-4.5,14.8-6.7,21.3-6.7c-0.4,0.8,7.3-1.1,7.3-0.2"/>
		<g>
			<polygon class="st2" points="18.3,155.1 9.4,172.8 50.4,213.9 42.6,220.8 -3,177.1 10.4,143.9 			"/>
		</g>
		<g>
			<polygon class="st4" points="13.7,148.6 -3,177.1 10.4,143.9 			"/>
		</g>
		<g>
			<polygon class="st2" points="123.8,155.1 132.7,172.8 91.7,213.9 99.5,220.8 145.1,177.1 132.6,146.5 			"/>
		</g>
		<g>
			<polygon class="st4" points="128.4,150.3 145.1,176.2 132.6,145.6 			"/>
		</g>
	</g>
</g>
</svg>
